<?xml version="1.0" encoding="UTF-8" standalone="no"?>
<!DOCTYPE svg PUBLIC "-//W3C//DTD SVG 1.1//EN" "http://www.w3.org/Graphics/SVG/1.1/DTD/svg11.dtd">
<svg width="100%" height="100%" viewBox="0 0 800 300" version="1.1" xmlns="http://www.w3.org/2000/svg" xmlns:xlink="http://www.w3.org/1999/xlink" xml:space="preserve" xmlns:serif="http://www.serif.com/" style="fill-rule:evenodd;clip-rule:evenodd;stroke-linejoin:round;stroke-miterlimit:2;">
    <g transform="matrix(1.29712,0,0,1.29712,-195.278,23.862)">
        <g transform="matrix(62.5,0,0,62.5,181.363,70.9977)">
            <path d="M0.467,-0.577C0.45,-0.577 0.404,-0.582 0.328,-0.591C0.324,-0.531 0.321,-0.451 0.321,-0.352L0.321,-0.133C0.364,-0.134 0.408,-0.134 0.453,-0.134C0.473,-0.134 0.489,-0.128 0.502,-0.115C0.515,-0.102 0.521,-0.086 0.521,-0.068C0.521,-0.05 0.515,-0.034 0.502,-0.021C0.489,-0.008 0.473,-0.002 0.453,-0.002C0.435,-0.002 0.408,-0.002 0.371,-0.001C0.335,0 0.307,0 0.289,0C0.268,0 0.235,0.003 0.192,0.009C0.149,0.015 0.117,0.018 0.096,0.018C0.076,0.018 0.06,0.011 0.047,-0.002C0.034,-0.015 0.028,-0.03 0.028,-0.048C0.028,-0.067 0.034,-0.082 0.047,-0.095C0.06,-0.108 0.076,-0.115 0.096,-0.115C0.118,-0.115 0.147,-0.117 0.183,-0.122C0.182,-0.16 0.182,-0.234 0.182,-0.343C0.182,-0.431 0.185,-0.516 0.192,-0.596L0.086,-0.593C0.066,-0.593 0.05,-0.6 0.037,-0.612C0.024,-0.625 0.017,-0.641 0.017,-0.66C0.017,-0.679 0.024,-0.694 0.037,-0.707C0.049,-0.718 0.063,-0.724 0.081,-0.726C0.11,-0.728 0.16,-0.729 0.23,-0.729C0.294,-0.729 0.376,-0.723 0.477,-0.709C0.517,-0.703 0.537,-0.681 0.537,-0.642C0.537,-0.621 0.529,-0.604 0.513,-0.592C0.499,-0.582 0.484,-0.577 0.467,-0.577Z" style="fill-rule:nonzero;"/>
        </g>
        <g transform="matrix(50,0,0,50,215.512,70.9977)">
            <path d="M0.279,0.03C0.196,0.03 0.131,0.011 0.083,-0.025C0.043,-0.056 0.023,-0.091 0.023,-0.131C0.023,-0.152 0.03,-0.169 0.042,-0.182C0.054,-0.196 0.071,-0.203 0.093,-0.203C0.123,-0.203 0.144,-0.188 0.158,-0.158C0.176,-0.118 0.218,-0.098 0.284,-0.098C0.34,-0.098 0.394,-0.11 0.446,-0.134C0.501,-0.159 0.528,-0.187 0.528,-0.217C0.528,-0.258 0.511,-0.285 0.477,-0.298C0.453,-0.307 0.405,-0.313 0.332,-0.314C0.276,-0.316 0.225,-0.326 0.181,-0.346C0.12,-0.373 0.091,-0.412 0.092,-0.462C0.093,-0.526 0.127,-0.584 0.193,-0.637C0.26,-0.69 0.334,-0.716 0.414,-0.716C0.446,-0.716 0.485,-0.709 0.532,-0.694C0.59,-0.676 0.62,-0.655 0.62,-0.631C0.62,-0.614 0.614,-0.599 0.602,-0.586C0.589,-0.572 0.572,-0.564 0.552,-0.564C0.536,-0.564 0.514,-0.568 0.483,-0.574C0.453,-0.581 0.43,-0.584 0.414,-0.584C0.372,-0.584 0.332,-0.574 0.294,-0.554C0.255,-0.534 0.236,-0.512 0.236,-0.488C0.236,-0.475 0.242,-0.465 0.254,-0.457C0.266,-0.449 0.283,-0.444 0.307,-0.44C0.349,-0.438 0.39,-0.436 0.432,-0.434C0.504,-0.428 0.561,-0.408 0.603,-0.373C0.649,-0.333 0.672,-0.279 0.672,-0.21C0.672,-0.126 0.625,-0.063 0.529,-0.02C0.456,0.013 0.373,0.03 0.279,0.03Z" style="fill-rule:nonzero;"/>
        </g>
        <g transform="matrix(50,0,0,50,271.86,70.9977)">
            <path d="M0.138,0.005C0.118,0.005 0.102,-0.002 0.089,-0.015C0.076,-0.028 0.07,-0.043 0.07,-0.062C0.07,-0.094 0.071,-0.143 0.074,-0.208C0.078,-0.273 0.079,-0.322 0.079,-0.354C0.079,-0.391 0.078,-0.445 0.077,-0.517C0.075,-0.589 0.075,-0.644 0.075,-0.68C0.075,-0.698 0.083,-0.715 0.101,-0.733C0.118,-0.751 0.136,-0.76 0.156,-0.76C0.167,-0.76 0.194,-0.75 0.237,-0.729C0.287,-0.705 0.317,-0.692 0.327,-0.689C0.422,-0.658 0.503,-0.61 0.571,-0.545C0.651,-0.468 0.691,-0.383 0.691,-0.29C0.691,-0.233 0.678,-0.18 0.65,-0.129C0.622,-0.077 0.584,-0.036 0.536,-0.004C0.482,0.031 0.406,0.048 0.308,0.048C0.284,0.048 0.257,0.045 0.226,0.038C0.189,0.03 0.159,0.019 0.138,0.005ZM0.412,-0.497C0.381,-0.517 0.313,-0.548 0.209,-0.591L0.209,-0.107C0.222,-0.099 0.236,-0.093 0.253,-0.089C0.269,-0.085 0.287,-0.083 0.308,-0.083C0.378,-0.083 0.428,-0.093 0.459,-0.112C0.488,-0.131 0.511,-0.156 0.528,-0.188C0.545,-0.22 0.554,-0.253 0.554,-0.288C0.554,-0.368 0.507,-0.438 0.412,-0.497Z" style="fill-rule:nonzero;"/>
        </g>
        <g transform="matrix(50,0,0,50,307.944,70.9977)">
            <path d="M0.61,0.015C0.585,0.014 0.559,-0.017 0.533,-0.076C0.515,-0.115 0.501,-0.159 0.488,-0.209C0.464,-0.205 0.425,-0.202 0.37,-0.198C0.319,-0.195 0.279,-0.19 0.252,-0.186C0.237,-0.15 0.211,-0.096 0.174,-0.024C0.16,0 0.14,0.011 0.114,0.011C0.096,0.011 0.08,0.005 0.066,-0.007C0.052,-0.019 0.044,-0.035 0.044,-0.054C0.044,-0.07 0.068,-0.127 0.116,-0.223C0.111,-0.233 0.109,-0.242 0.11,-0.251C0.111,-0.267 0.127,-0.279 0.157,-0.288C0.203,-0.368 0.255,-0.451 0.312,-0.537C0.393,-0.66 0.443,-0.722 0.462,-0.722C0.498,-0.722 0.522,-0.7 0.534,-0.657C0.54,-0.622 0.55,-0.57 0.564,-0.5C0.584,-0.406 0.609,-0.299 0.637,-0.178C0.639,-0.169 0.648,-0.148 0.662,-0.114C0.674,-0.086 0.68,-0.065 0.68,-0.051C0.68,-0.032 0.673,-0.016 0.658,-0.003C0.644,0.009 0.628,0.015 0.61,0.015ZM0.428,-0.486C0.403,-0.443 0.368,-0.383 0.323,-0.308C0.338,-0.311 0.361,-0.314 0.392,-0.316C0.428,-0.318 0.451,-0.32 0.46,-0.321C0.453,-0.364 0.442,-0.419 0.428,-0.486Z" style="fill-rule:nonzero;"/>
        </g>
        <g transform="matrix(50,0,0,50,344.516,70.9977)">
            <path d="M0.772,-0.12C0.772,-0.104 0.769,-0.078 0.764,-0.043C0.757,-0.001 0.733,0.02 0.692,0.02C0.67,0.02 0.644,0.007 0.615,-0.019C0.49,-0.132 0.348,-0.29 0.191,-0.494C0.189,-0.409 0.188,-0.357 0.188,-0.338C0.188,-0.312 0.189,-0.273 0.19,-0.222C0.191,-0.17 0.191,-0.131 0.191,-0.105C0.191,-0.009 0.168,0.039 0.121,0.039C0.097,0.039 0.078,0.031 0.064,0.017C0.051,0.004 0.045,-0.012 0.045,-0.031C0.045,-0.044 0.046,-0.063 0.048,-0.09C0.05,-0.116 0.051,-0.136 0.051,-0.149C0.051,-0.168 0.052,-0.197 0.053,-0.235C0.055,-0.274 0.055,-0.303 0.055,-0.322C0.055,-0.342 0.055,-0.373 0.054,-0.415C0.053,-0.456 0.052,-0.487 0.052,-0.507C0.052,-0.527 0.05,-0.556 0.046,-0.595C0.042,-0.633 0.041,-0.663 0.041,-0.682C0.041,-0.702 0.049,-0.719 0.066,-0.734C0.082,-0.75 0.102,-0.757 0.123,-0.757C0.147,-0.757 0.174,-0.736 0.203,-0.695C0.351,-0.484 0.497,-0.312 0.641,-0.179C0.641,-0.189 0.641,-0.214 0.641,-0.253C0.641,-0.413 0.639,-0.522 0.636,-0.578C0.636,-0.587 0.633,-0.605 0.63,-0.63C0.627,-0.653 0.625,-0.671 0.625,-0.684C0.625,-0.729 0.649,-0.751 0.696,-0.751C0.749,-0.751 0.776,-0.67 0.776,-0.506C0.776,-0.502 0.776,-0.477 0.775,-0.429C0.773,-0.263 0.772,-0.16 0.772,-0.12Z" style="fill-rule:nonzero;"/>
        </g>
        <g transform="matrix(50,0,0,50,385.165,70.9977)">
            <path d="M0.467,-0.577C0.45,-0.577 0.404,-0.582 0.328,-0.591C0.324,-0.531 0.321,-0.451 0.321,-0.352L0.321,-0.133C0.364,-0.134 0.408,-0.134 0.453,-0.134C0.473,-0.134 0.489,-0.128 0.502,-0.115C0.515,-0.102 0.521,-0.086 0.521,-0.068C0.521,-0.05 0.515,-0.034 0.502,-0.021C0.489,-0.008 0.473,-0.002 0.453,-0.002C0.435,-0.002 0.408,-0.002 0.371,-0.001C0.335,0 0.307,0 0.289,0C0.268,0 0.235,0.003 0.192,0.009C0.149,0.015 0.117,0.018 0.096,0.018C0.076,0.018 0.06,0.011 0.047,-0.002C0.034,-0.015 0.028,-0.03 0.028,-0.048C0.028,-0.067 0.034,-0.082 0.047,-0.095C0.06,-0.108 0.076,-0.115 0.096,-0.115C0.118,-0.115 0.147,-0.117 0.183,-0.122C0.182,-0.16 0.182,-0.234 0.182,-0.343C0.182,-0.431 0.185,-0.516 0.192,-0.596L0.086,-0.593C0.066,-0.593 0.05,-0.6 0.037,-0.612C0.024,-0.625 0.017,-0.641 0.017,-0.66C0.017,-0.679 0.024,-0.694 0.037,-0.707C0.049,-0.718 0.063,-0.724 0.081,-0.726C0.11,-0.728 0.16,-0.729 0.23,-0.729C0.294,-0.729 0.376,-0.723 0.477,-0.709C0.517,-0.703 0.537,-0.681 0.537,-0.642C0.537,-0.621 0.529,-0.604 0.513,-0.592C0.499,-0.582 0.484,-0.577 0.467,-0.577Z" style="fill-rule:nonzero;"/>
        </g>
        <g transform="matrix(50,0,0,50,499.204,70.9977)">
            <path d="M0.258,-0.386C0.244,-0.333 0.223,-0.253 0.197,-0.147C0.191,-0.11 0.185,-0.074 0.179,-0.037C0.165,0.009 0.141,0.032 0.105,0.032C0.083,0.032 0.065,0.025 0.052,0.009C0.041,-0.004 0.035,-0.019 0.035,-0.037C0.035,-0.09 0.046,-0.154 0.069,-0.23C0.102,-0.344 0.12,-0.407 0.123,-0.419C0.132,-0.469 0.142,-0.519 0.152,-0.569C0.167,-0.638 0.182,-0.684 0.199,-0.707C0.217,-0.73 0.238,-0.742 0.264,-0.742C0.294,-0.742 0.316,-0.727 0.33,-0.697C0.343,-0.668 0.357,-0.611 0.372,-0.523C0.386,-0.438 0.407,-0.347 0.436,-0.249C0.473,-0.345 0.507,-0.451 0.539,-0.567L0.566,-0.679C0.584,-0.726 0.611,-0.749 0.648,-0.749C0.683,-0.749 0.71,-0.722 0.727,-0.668C0.734,-0.646 0.742,-0.605 0.75,-0.546C0.769,-0.407 0.793,-0.288 0.821,-0.189C0.85,-0.089 0.865,-0.034 0.865,-0.025C0.865,-0.006 0.857,0.01 0.842,0.023C0.827,0.035 0.811,0.041 0.793,0.041C0.758,0.041 0.732,0.015 0.714,-0.036L0.687,-0.154C0.671,-0.212 0.654,-0.297 0.636,-0.406C0.622,-0.363 0.597,-0.294 0.563,-0.201L0.534,-0.111C0.522,-0.075 0.51,-0.046 0.497,-0.023C0.479,0.007 0.455,0.022 0.424,0.022C0.394,0.022 0.37,0.004 0.354,-0.032L0.327,-0.123C0.301,-0.206 0.278,-0.294 0.258,-0.386Z" style="fill-rule:nonzero;"/>
        </g>
        <g transform="matrix(50,0,0,50,543.344,70.9977)">
            <path d="M0.542,-0.626C0.535,-0.626 0.528,-0.627 0.521,-0.629C0.468,-0.643 0.417,-0.65 0.367,-0.65C0.343,-0.65 0.317,-0.648 0.289,-0.645C0.261,-0.641 0.231,-0.635 0.199,-0.627C0.199,-0.584 0.198,-0.519 0.195,-0.434C0.213,-0.435 0.277,-0.441 0.386,-0.452C0.448,-0.458 0.487,-0.461 0.504,-0.461C0.523,-0.461 0.54,-0.455 0.553,-0.443C0.567,-0.431 0.574,-0.415 0.574,-0.395C0.574,-0.356 0.553,-0.334 0.512,-0.329C0.486,-0.327 0.447,-0.323 0.395,-0.319C0.349,-0.314 0.279,-0.307 0.186,-0.3C0.184,-0.258 0.183,-0.225 0.183,-0.2C0.183,-0.136 0.186,-0.1 0.194,-0.091C0.197,-0.087 0.218,-0.084 0.255,-0.084C0.276,-0.084 0.306,-0.085 0.347,-0.086C0.387,-0.087 0.418,-0.087 0.438,-0.087C0.444,-0.087 0.454,-0.088 0.467,-0.09C0.479,-0.092 0.489,-0.093 0.495,-0.093C0.514,-0.093 0.53,-0.088 0.543,-0.077C0.559,-0.065 0.566,-0.048 0.566,-0.026C0.566,0.01 0.547,0.032 0.509,0.039C0.477,0.045 0.409,0.048 0.307,0.048C0.201,0.048 0.131,0.034 0.099,0.005C0.064,-0.026 0.046,-0.095 0.046,-0.2C0.046,-0.243 0.049,-0.309 0.055,-0.396C0.062,-0.484 0.065,-0.549 0.065,-0.592C0.065,-0.604 0.063,-0.621 0.06,-0.643C0.057,-0.665 0.055,-0.682 0.055,-0.693C0.055,-0.743 0.078,-0.768 0.124,-0.768C0.138,-0.768 0.151,-0.764 0.163,-0.755C0.201,-0.765 0.237,-0.772 0.271,-0.777C0.305,-0.781 0.337,-0.784 0.367,-0.784C0.449,-0.784 0.515,-0.774 0.564,-0.755C0.594,-0.744 0.609,-0.723 0.609,-0.693C0.609,-0.676 0.603,-0.661 0.591,-0.648C0.578,-0.633 0.562,-0.626 0.542,-0.626Z" style="fill-rule:nonzero;"/>
        </g>
        <g transform="matrix(50,0,0,50,574.57,70.9977)">
            <path d="M0.542,-0.626C0.535,-0.626 0.528,-0.627 0.521,-0.629C0.468,-0.643 0.417,-0.65 0.367,-0.65C0.343,-0.65 0.317,-0.648 0.289,-0.645C0.261,-0.641 0.231,-0.635 0.199,-0.627C0.199,-0.584 0.198,-0.519 0.195,-0.434C0.213,-0.435 0.277,-0.441 0.386,-0.452C0.448,-0.458 0.487,-0.461 0.504,-0.461C0.523,-0.461 0.54,-0.455 0.553,-0.443C0.567,-0.431 0.574,-0.415 0.574,-0.395C0.574,-0.356 0.553,-0.334 0.512,-0.329C0.486,-0.327 0.447,-0.323 0.395,-0.319C0.349,-0.314 0.279,-0.307 0.186,-0.3C0.184,-0.258 0.183,-0.225 0.183,-0.2C0.183,-0.136 0.186,-0.1 0.194,-0.091C0.197,-0.087 0.218,-0.084 0.255,-0.084C0.276,-0.084 0.306,-0.085 0.347,-0.086C0.387,-0.087 0.418,-0.087 0.438,-0.087C0.444,-0.087 0.454,-0.088 0.467,-0.09C0.479,-0.092 0.489,-0.093 0.495,-0.093C0.514,-0.093 0.53,-0.088 0.543,-0.077C0.559,-0.065 0.566,-0.048 0.566,-0.026C0.566,0.01 0.547,0.032 0.509,0.039C0.477,0.045 0.409,0.048 0.307,0.048C0.201,0.048 0.131,0.034 0.099,0.005C0.064,-0.026 0.046,-0.095 0.046,-0.2C0.046,-0.243 0.049,-0.309 0.055,-0.396C0.062,-0.484 0.065,-0.549 0.065,-0.592C0.065,-0.604 0.063,-0.621 0.06,-0.643C0.057,-0.665 0.055,-0.682 0.055,-0.693C0.055,-0.743 0.078,-0.768 0.124,-0.768C0.138,-0.768 0.151,-0.764 0.163,-0.755C0.201,-0.765 0.237,-0.772 0.271,-0.777C0.305,-0.781 0.337,-0.784 0.367,-0.784C0.449,-0.784 0.515,-0.774 0.564,-0.755C0.594,-0.744 0.609,-0.723 0.609,-0.693C0.609,-0.676 0.603,-0.661 0.591,-0.648C0.578,-0.633 0.562,-0.626 0.542,-0.626Z" style="fill-rule:nonzero;"/>
        </g>
        <g transform="matrix(50,0,0,50,605.795,70.9977)">
            <path d="M0.633,-0.585C0.607,-0.585 0.568,-0.587 0.514,-0.591C0.462,-0.594 0.423,-0.596 0.396,-0.596C0.397,-0.559 0.401,-0.493 0.409,-0.397C0.416,-0.313 0.419,-0.247 0.419,-0.198C0.419,-0.187 0.42,-0.171 0.422,-0.149C0.425,-0.127 0.426,-0.111 0.426,-0.1C0.426,-0.075 0.421,-0.053 0.41,-0.034C0.397,-0.009 0.378,0.004 0.353,0.004C0.335,0.004 0.319,-0.002 0.306,-0.013C0.29,-0.026 0.283,-0.042 0.283,-0.061C0.283,-0.066 0.284,-0.073 0.285,-0.082C0.287,-0.091 0.288,-0.098 0.288,-0.103C0.288,-0.118 0.287,-0.141 0.284,-0.171C0.282,-0.201 0.281,-0.224 0.281,-0.239C0.281,-0.283 0.278,-0.342 0.271,-0.417C0.263,-0.502 0.259,-0.561 0.257,-0.594L0.232,-0.594C0.159,-0.594 0.102,-0.599 0.059,-0.609C0.023,-0.618 0.005,-0.639 0.005,-0.673C0.005,-0.69 0.011,-0.705 0.022,-0.718C0.036,-0.734 0.054,-0.741 0.076,-0.74C0.088,-0.739 0.113,-0.736 0.154,-0.731C0.186,-0.728 0.212,-0.726 0.232,-0.726C0.252,-0.726 0.281,-0.726 0.321,-0.727C0.361,-0.728 0.39,-0.728 0.41,-0.728C0.435,-0.728 0.472,-0.726 0.521,-0.723C0.571,-0.719 0.608,-0.718 0.633,-0.718C0.652,-0.718 0.669,-0.711 0.682,-0.699C0.695,-0.686 0.702,-0.67 0.702,-0.652C0.702,-0.633 0.695,-0.618 0.682,-0.605C0.669,-0.592 0.652,-0.585 0.633,-0.585Z" style="fill-rule:nonzero;"/>
        </g>
        <g transform="matrix(50,0,0,50,640.585,70.9977)">
            <path d="M0.467,-0.577C0.45,-0.577 0.404,-0.582 0.328,-0.591C0.324,-0.531 0.321,-0.451 0.321,-0.352L0.321,-0.133C0.364,-0.134 0.408,-0.134 0.453,-0.134C0.473,-0.134 0.489,-0.128 0.502,-0.115C0.515,-0.102 0.521,-0.086 0.521,-0.068C0.521,-0.05 0.515,-0.034 0.502,-0.021C0.489,-0.008 0.473,-0.002 0.453,-0.002C0.435,-0.002 0.408,-0.002 0.371,-0.001C0.335,0 0.307,0 0.289,0C0.268,0 0.235,0.003 0.192,0.009C0.149,0.015 0.117,0.018 0.096,0.018C0.076,0.018 0.06,0.011 0.047,-0.002C0.034,-0.015 0.028,-0.03 0.028,-0.048C0.028,-0.067 0.034,-0.082 0.047,-0.095C0.06,-0.108 0.076,-0.115 0.096,-0.115C0.118,-0.115 0.147,-0.117 0.183,-0.122C0.182,-0.16 0.182,-0.234 0.182,-0.343C0.182,-0.431 0.185,-0.516 0.192,-0.596L0.086,-0.593C0.066,-0.593 0.05,-0.6 0.037,-0.612C0.024,-0.625 0.017,-0.641 0.017,-0.66C0.017,-0.679 0.024,-0.694 0.037,-0.707C0.049,-0.718 0.063,-0.724 0.081,-0.726C0.11,-0.728 0.16,-0.729 0.23,-0.729C0.294,-0.729 0.376,-0.723 0.477,-0.709C0.517,-0.703 0.537,-0.681 0.537,-0.642C0.537,-0.621 0.529,-0.604 0.513,-0.592C0.499,-0.582 0.484,-0.577 0.467,-0.577Z" style="fill-rule:nonzero;"/>
        </g>
        <g transform="matrix(50,0,0,50,667.905,70.9977)">
            <path d="M0.772,-0.12C0.772,-0.104 0.769,-0.078 0.764,-0.043C0.757,-0.001 0.733,0.02 0.692,0.02C0.67,0.02 0.644,0.007 0.615,-0.019C0.49,-0.132 0.348,-0.29 0.191,-0.494C0.189,-0.409 0.188,-0.357 0.188,-0.338C0.188,-0.312 0.189,-0.273 0.19,-0.222C0.191,-0.17 0.191,-0.131 0.191,-0.105C0.191,-0.009 0.168,0.039 0.121,0.039C0.097,0.039 0.078,0.031 0.064,0.017C0.051,0.004 0.045,-0.012 0.045,-0.031C0.045,-0.044 0.046,-0.063 0.048,-0.09C0.05,-0.116 0.051,-0.136 0.051,-0.149C0.051,-0.168 0.052,-0.197 0.053,-0.235C0.055,-0.274 0.055,-0.303 0.055,-0.322C0.055,-0.342 0.055,-0.373 0.054,-0.415C0.053,-0.456 0.052,-0.487 0.052,-0.507C0.052,-0.527 0.05,-0.556 0.046,-0.595C0.042,-0.633 0.041,-0.663 0.041,-0.682C0.041,-0.702 0.049,-0.719 0.066,-0.734C0.082,-0.75 0.102,-0.757 0.123,-0.757C0.147,-0.757 0.174,-0.736 0.203,-0.695C0.351,-0.484 0.497,-0.312 0.641,-0.179C0.641,-0.189 0.641,-0.214 0.641,-0.253C0.641,-0.413 0.639,-0.522 0.636,-0.578C0.636,-0.587 0.633,-0.605 0.63,-0.63C0.627,-0.653 0.625,-0.671 0.625,-0.684C0.625,-0.729 0.649,-0.751 0.696,-0.751C0.749,-0.751 0.776,-0.67 0.776,-0.506C0.776,-0.502 0.776,-0.477 0.775,-0.429C0.773,-0.263 0.772,-0.16 0.772,-0.12Z" style="fill-rule:nonzero;"/>
        </g>
        <g transform="matrix(50,0,0,50,708.554,70.9977)">
            <path d="M0.652,-0.287C0.63,-0.19 0.585,-0.112 0.518,-0.054C0.45,0.004 0.37,0.034 0.279,0.034C0.192,0.034 0.127,0.011 0.084,-0.035C0.041,-0.081 0.019,-0.149 0.019,-0.241C0.019,-0.324 0.04,-0.41 0.081,-0.497C0.122,-0.585 0.174,-0.656 0.239,-0.71C0.284,-0.748 0.333,-0.767 0.384,-0.767C0.416,-0.767 0.459,-0.756 0.513,-0.733C0.578,-0.706 0.61,-0.677 0.61,-0.646C0.61,-0.629 0.603,-0.613 0.59,-0.599C0.576,-0.586 0.56,-0.579 0.541,-0.579C0.531,-0.579 0.509,-0.588 0.476,-0.606C0.442,-0.625 0.412,-0.634 0.384,-0.634C0.355,-0.634 0.315,-0.602 0.266,-0.539C0.193,-0.447 0.157,-0.348 0.157,-0.241C0.157,-0.186 0.165,-0.149 0.181,-0.13C0.198,-0.109 0.23,-0.099 0.279,-0.099C0.329,-0.099 0.372,-0.113 0.41,-0.142C0.45,-0.172 0.48,-0.215 0.499,-0.272C0.424,-0.267 0.358,-0.251 0.302,-0.226C0.292,-0.222 0.282,-0.219 0.271,-0.219C0.251,-0.219 0.235,-0.227 0.221,-0.242C0.209,-0.255 0.203,-0.27 0.203,-0.287C0.203,-0.337 0.262,-0.372 0.38,-0.392C0.446,-0.403 0.524,-0.408 0.612,-0.408C0.632,-0.408 0.648,-0.402 0.661,-0.389C0.675,-0.376 0.681,-0.361 0.681,-0.342C0.681,-0.319 0.671,-0.3 0.652,-0.287Z" style="fill-rule:nonzero;"/>
        </g>
    </g>
    <g transform="matrix(1.63648,0,0,1.63648,-229.526,-43.9242)">
        <g transform="matrix(50,0,0,50,206.31,168.758)">
            <path d="M0.55,0.006C0.532,0.006 0.516,-0.001 0.501,-0.015C0.403,-0.107 0.294,-0.171 0.176,-0.207C0.18,-0.112 0.182,-0.06 0.182,-0.049C0.182,-0.031 0.175,-0.015 0.162,-0.002C0.149,0.011 0.133,0.017 0.113,0.017C0.094,0.017 0.077,0.011 0.064,-0.002C0.051,-0.015 0.045,-0.031 0.045,-0.049C0.045,-0.074 0.045,-0.11 0.046,-0.159C0.047,-0.208 0.047,-0.244 0.047,-0.269L0.048,-0.663C0.048,-0.684 0.054,-0.703 0.067,-0.72C0.083,-0.742 0.106,-0.752 0.136,-0.75C0.215,-0.744 0.255,-0.741 0.257,-0.741C0.303,-0.735 0.342,-0.724 0.374,-0.708C0.513,-0.638 0.582,-0.551 0.582,-0.448C0.582,-0.405 0.567,-0.367 0.538,-0.335C0.509,-0.302 0.465,-0.274 0.407,-0.252C0.493,-0.204 0.558,-0.155 0.602,-0.104C0.613,-0.091 0.619,-0.077 0.619,-0.061C0.619,-0.043 0.612,-0.027 0.599,-0.014C0.585,-0.001 0.569,0.006 0.55,0.006ZM0.237,-0.608C0.234,-0.609 0.215,-0.61 0.18,-0.612L0.18,-0.353C0.188,-0.353 0.195,-0.353 0.201,-0.353C0.281,-0.353 0.34,-0.362 0.378,-0.382C0.395,-0.391 0.41,-0.402 0.424,-0.416C0.438,-0.43 0.445,-0.441 0.445,-0.448C0.445,-0.484 0.422,-0.519 0.375,-0.553C0.332,-0.585 0.285,-0.604 0.237,-0.608Z" style="fill-rule:nonzero;"/>
        </g>
        <g transform="matrix(50,0,0,50,238.317,168.758)">
            <path d="M0.467,-0.577C0.45,-0.577 0.404,-0.582 0.328,-0.591C0.324,-0.531 0.321,-0.451 0.321,-0.352L0.321,-0.133C0.364,-0.134 0.408,-0.134 0.453,-0.134C0.473,-0.134 0.489,-0.128 0.502,-0.115C0.515,-0.102 0.521,-0.086 0.521,-0.068C0.521,-0.05 0.515,-0.034 0.502,-0.021C0.489,-0.008 0.473,-0.002 0.453,-0.002C0.435,-0.002 0.408,-0.002 0.371,-0.001C0.335,0 0.307,0 0.289,0C0.268,0 0.235,0.003 0.192,0.009C0.149,0.015 0.117,0.018 0.096,0.018C0.076,0.018 0.06,0.011 0.047,-0.002C0.034,-0.015 0.028,-0.03 0.028,-0.048C0.028,-0.067 0.034,-0.082 0.047,-0.095C0.06,-0.108 0.076,-0.115 0.096,-0.115C0.118,-0.115 0.147,-0.117 0.183,-0.122C0.182,-0.16 0.182,-0.234 0.182,-0.343C0.182,-0.431 0.185,-0.516 0.192,-0.596L0.086,-0.593C0.066,-0.593 0.05,-0.6 0.037,-0.612C0.024,-0.625 0.017,-0.641 0.017,-0.66C0.017,-0.679 0.024,-0.694 0.037,-0.707C0.049,-0.718 0.063,-0.724 0.081,-0.726C0.11,-0.728 0.16,-0.729 0.23,-0.729C0.294,-0.729 0.376,-0.723 0.477,-0.709C0.517,-0.703 0.537,-0.681 0.537,-0.642C0.537,-0.621 0.529,-0.604 0.513,-0.592C0.499,-0.582 0.484,-0.577 0.467,-0.577Z" style="fill-rule:nonzero;"/>
        </g>
        <g transform="matrix(50,0,0,50,265.636,168.758)">
            <path d="M0.652,-0.287C0.63,-0.19 0.585,-0.112 0.518,-0.054C0.45,0.004 0.37,0.034 0.279,0.034C0.192,0.034 0.127,0.011 0.084,-0.035C0.041,-0.081 0.019,-0.149 0.019,-0.241C0.019,-0.324 0.04,-0.41 0.081,-0.497C0.122,-0.585 0.174,-0.656 0.239,-0.71C0.284,-0.748 0.333,-0.767 0.384,-0.767C0.416,-0.767 0.459,-0.756 0.513,-0.733C0.578,-0.706 0.61,-0.677 0.61,-0.646C0.61,-0.629 0.603,-0.613 0.59,-0.599C0.576,-0.586 0.56,-0.579 0.541,-0.579C0.531,-0.579 0.509,-0.588 0.476,-0.606C0.442,-0.625 0.412,-0.634 0.384,-0.634C0.355,-0.634 0.315,-0.602 0.266,-0.539C0.193,-0.447 0.157,-0.348 0.157,-0.241C0.157,-0.186 0.165,-0.149 0.181,-0.13C0.198,-0.109 0.23,-0.099 0.279,-0.099C0.329,-0.099 0.372,-0.113 0.41,-0.142C0.45,-0.172 0.48,-0.215 0.499,-0.272C0.424,-0.267 0.358,-0.251 0.302,-0.226C0.292,-0.222 0.282,-0.219 0.271,-0.219C0.251,-0.219 0.235,-0.227 0.221,-0.242C0.209,-0.255 0.203,-0.27 0.203,-0.287C0.203,-0.337 0.262,-0.372 0.38,-0.392C0.446,-0.403 0.524,-0.408 0.612,-0.408C0.632,-0.408 0.648,-0.402 0.661,-0.389C0.675,-0.376 0.681,-0.361 0.681,-0.342C0.681,-0.319 0.671,-0.3 0.652,-0.287Z" style="fill-rule:nonzero;"/>
        </g>
        <g transform="matrix(50,0,0,50,299.621,168.758)">
            <path d="M0.733,-0.677C0.726,-0.653 0.723,-0.633 0.723,-0.615C0.723,-0.606 0.722,-0.592 0.72,-0.573C0.719,-0.554 0.718,-0.54 0.718,-0.531C0.718,-0.5 0.716,-0.454 0.713,-0.393C0.71,-0.332 0.708,-0.286 0.708,-0.255C0.708,-0.232 0.71,-0.196 0.713,-0.149C0.717,-0.102 0.719,-0.066 0.719,-0.042C0.719,-0.025 0.712,-0.009 0.7,0.003C0.687,0.015 0.671,0.021 0.652,0.021C0.633,0.021 0.617,0.015 0.603,0.003C0.589,-0.009 0.582,-0.024 0.582,-0.042C0.582,-0.065 0.58,-0.101 0.578,-0.148C0.576,-0.196 0.575,-0.232 0.575,-0.255C0.575,-0.274 0.576,-0.29 0.576,-0.305C0.525,-0.302 0.462,-0.294 0.387,-0.281C0.324,-0.269 0.262,-0.258 0.199,-0.246C0.199,-0.224 0.196,-0.187 0.192,-0.135C0.189,-0.09 0.188,-0.052 0.188,-0.023C0.188,-0.006 0.181,0.01 0.168,0.022C0.156,0.034 0.14,0.041 0.121,0.041C0.102,0.041 0.086,0.034 0.074,0.022C0.061,0.01 0.055,-0.006 0.055,-0.023C0.055,-0.056 0.058,-0.105 0.063,-0.171C0.069,-0.236 0.072,-0.285 0.072,-0.318C0.072,-0.36 0.073,-0.423 0.075,-0.507C0.077,-0.59 0.078,-0.653 0.078,-0.695C0.078,-0.713 0.084,-0.728 0.097,-0.74C0.109,-0.753 0.125,-0.759 0.144,-0.759C0.163,-0.759 0.179,-0.753 0.191,-0.74C0.204,-0.728 0.21,-0.713 0.21,-0.695C0.21,-0.67 0.21,-0.633 0.208,-0.583C0.206,-0.534 0.205,-0.496 0.205,-0.472C0.205,-0.464 0.204,-0.448 0.202,-0.425C0.2,-0.403 0.199,-0.387 0.199,-0.375L0.387,-0.411C0.46,-0.424 0.523,-0.431 0.576,-0.433C0.577,-0.455 0.58,-0.514 0.583,-0.609C0.583,-0.634 0.591,-0.663 0.605,-0.695C0.624,-0.735 0.644,-0.755 0.667,-0.755C0.685,-0.755 0.7,-0.75 0.713,-0.738C0.728,-0.726 0.735,-0.71 0.735,-0.692C0.735,-0.687 0.734,-0.682 0.733,-0.677Z" style="fill-rule:nonzero;"/>
        </g>
        <g transform="matrix(50,0,0,50,338.024,168.758)">
            <path d="M0.633,-0.585C0.607,-0.585 0.568,-0.587 0.514,-0.591C0.462,-0.594 0.423,-0.596 0.396,-0.596C0.397,-0.559 0.401,-0.493 0.409,-0.397C0.416,-0.313 0.419,-0.247 0.419,-0.198C0.419,-0.187 0.42,-0.171 0.422,-0.149C0.425,-0.127 0.426,-0.111 0.426,-0.1C0.426,-0.075 0.421,-0.053 0.41,-0.034C0.397,-0.009 0.378,0.004 0.353,0.004C0.335,0.004 0.319,-0.002 0.306,-0.013C0.29,-0.026 0.283,-0.042 0.283,-0.061C0.283,-0.066 0.284,-0.073 0.285,-0.082C0.287,-0.091 0.288,-0.098 0.288,-0.103C0.288,-0.118 0.287,-0.141 0.284,-0.171C0.282,-0.201 0.281,-0.224 0.281,-0.239C0.281,-0.283 0.278,-0.342 0.271,-0.417C0.263,-0.502 0.259,-0.561 0.257,-0.594L0.232,-0.594C0.159,-0.594 0.102,-0.599 0.059,-0.609C0.023,-0.618 0.005,-0.639 0.005,-0.673C0.005,-0.69 0.011,-0.705 0.022,-0.718C0.036,-0.734 0.054,-0.741 0.076,-0.74C0.088,-0.739 0.113,-0.736 0.154,-0.731C0.186,-0.728 0.212,-0.726 0.232,-0.726C0.252,-0.726 0.281,-0.726 0.321,-0.727C0.361,-0.728 0.39,-0.728 0.41,-0.728C0.435,-0.728 0.472,-0.726 0.521,-0.723C0.571,-0.719 0.608,-0.718 0.633,-0.718C0.652,-0.718 0.669,-0.711 0.682,-0.699C0.695,-0.686 0.702,-0.67 0.702,-0.652C0.702,-0.633 0.695,-0.618 0.682,-0.605C0.669,-0.592 0.652,-0.585 0.633,-0.585Z" style="fill-rule:nonzero;"/>
        </g>
        <g transform="matrix(50,0,0,50,394.494,168.758)">
            <path d="M0.772,-0.12C0.772,-0.104 0.769,-0.078 0.764,-0.043C0.757,-0.001 0.733,0.02 0.692,0.02C0.67,0.02 0.644,0.007 0.615,-0.019C0.49,-0.132 0.348,-0.29 0.191,-0.494C0.189,-0.409 0.188,-0.357 0.188,-0.338C0.188,-0.312 0.189,-0.273 0.19,-0.222C0.191,-0.17 0.191,-0.131 0.191,-0.105C0.191,-0.009 0.168,0.039 0.121,0.039C0.097,0.039 0.078,0.031 0.064,0.017C0.051,0.004 0.045,-0.012 0.045,-0.031C0.045,-0.044 0.046,-0.063 0.048,-0.09C0.05,-0.116 0.051,-0.136 0.051,-0.149C0.051,-0.168 0.052,-0.197 0.053,-0.235C0.055,-0.274 0.055,-0.303 0.055,-0.322C0.055,-0.342 0.055,-0.373 0.054,-0.415C0.053,-0.456 0.052,-0.487 0.052,-0.507C0.052,-0.527 0.05,-0.556 0.046,-0.595C0.042,-0.633 0.041,-0.663 0.041,-0.682C0.041,-0.702 0.049,-0.719 0.066,-0.734C0.082,-0.75 0.102,-0.757 0.123,-0.757C0.147,-0.757 0.174,-0.736 0.203,-0.695C0.351,-0.484 0.497,-0.312 0.641,-0.179C0.641,-0.189 0.641,-0.214 0.641,-0.253C0.641,-0.413 0.639,-0.522 0.636,-0.578C0.636,-0.587 0.633,-0.605 0.63,-0.63C0.627,-0.653 0.625,-0.671 0.625,-0.684C0.625,-0.729 0.649,-0.751 0.696,-0.751C0.749,-0.751 0.776,-0.67 0.776,-0.506C0.776,-0.502 0.776,-0.477 0.775,-0.429C0.773,-0.263 0.772,-0.16 0.772,-0.12Z" style="fill-rule:nonzero;"/>
        </g>
        <g transform="matrix(50,0,0,50,435.143,168.758)">
            <path d="M0.384,0.03C0.287,0.03 0.205,0.002 0.138,-0.053C0.065,-0.112 0.029,-0.189 0.029,-0.283C0.029,-0.394 0.064,-0.495 0.133,-0.586C0.211,-0.688 0.309,-0.74 0.427,-0.74C0.541,-0.74 0.626,-0.714 0.683,-0.662C0.739,-0.61 0.768,-0.531 0.768,-0.427C0.768,-0.316 0.736,-0.216 0.672,-0.126C0.598,-0.022 0.502,0.03 0.384,0.03ZM0.427,-0.607C0.355,-0.607 0.292,-0.572 0.241,-0.502C0.192,-0.436 0.168,-0.363 0.168,-0.283C0.168,-0.229 0.189,-0.185 0.231,-0.151C0.271,-0.119 0.322,-0.103 0.384,-0.103C0.455,-0.103 0.515,-0.138 0.563,-0.208C0.607,-0.272 0.629,-0.345 0.629,-0.427C0.629,-0.495 0.614,-0.543 0.583,-0.569C0.554,-0.595 0.502,-0.607 0.427,-0.607Z" style="fill-rule:nonzero;"/>
        </g>
        <g transform="matrix(50,0,0,50,475.06,168.758)">
            <path d="M1.002,-0.626C0.996,-0.613 0.99,-0.597 0.982,-0.577C0.977,-0.558 0.968,-0.53 0.956,-0.493C0.937,-0.445 0.908,-0.376 0.867,-0.284C0.826,-0.191 0.796,-0.122 0.778,-0.076C0.765,-0.042 0.752,-0.014 0.741,0.006C0.725,0.033 0.702,0.047 0.671,0.047C0.652,0.047 0.636,0.042 0.621,0.032C0.603,0.02 0.594,0.005 0.592,-0.015C0.577,-0.052 0.568,-0.083 0.564,-0.106C0.55,-0.176 0.53,-0.281 0.504,-0.42C0.483,-0.355 0.46,-0.296 0.436,-0.244C0.4,-0.166 0.376,-0.105 0.364,-0.06C0.367,-0.053 0.369,-0.045 0.369,-0.037C0.369,-0.017 0.36,0 0.342,0.012C0.326,0.023 0.309,0.028 0.29,0.028C0.266,0.028 0.247,0.022 0.231,0.01C0.214,-0.003 0.205,-0.021 0.205,-0.044L0.189,-0.102C0.179,-0.152 0.161,-0.228 0.137,-0.329C0.115,-0.406 0.079,-0.516 0.029,-0.659C0.026,-0.667 0.024,-0.675 0.024,-0.683C0.024,-0.703 0.032,-0.718 0.047,-0.729C0.06,-0.74 0.076,-0.745 0.095,-0.745C0.12,-0.745 0.14,-0.735 0.154,-0.714C0.162,-0.702 0.172,-0.682 0.182,-0.652C0.214,-0.56 0.25,-0.426 0.29,-0.25C0.316,-0.314 0.343,-0.389 0.37,-0.475C0.391,-0.545 0.409,-0.595 0.423,-0.625C0.455,-0.696 0.489,-0.731 0.522,-0.731C0.554,-0.731 0.578,-0.714 0.592,-0.679C0.599,-0.663 0.606,-0.632 0.613,-0.589C0.615,-0.576 0.619,-0.543 0.626,-0.491C0.633,-0.435 0.653,-0.333 0.688,-0.185C0.722,-0.266 0.768,-0.382 0.827,-0.534C0.83,-0.543 0.839,-0.573 0.852,-0.624C0.861,-0.66 0.873,-0.689 0.888,-0.71C0.903,-0.733 0.924,-0.745 0.95,-0.745C0.97,-0.745 0.986,-0.739 1,-0.726C1.013,-0.714 1.019,-0.698 1.019,-0.679C1.019,-0.672 1.013,-0.655 1.002,-0.626Z" style="fill-rule:nonzero;"/>
        </g>
        <g transform="matrix(50,0,0,50,527.038,168.758)">
            <path d="M0.424,-0.316C0.422,-0.314 0.395,-0.295 0.343,-0.259C0.31,-0.236 0.285,-0.215 0.268,-0.196C0.252,-0.179 0.235,-0.17 0.216,-0.17C0.198,-0.17 0.181,-0.177 0.167,-0.191C0.153,-0.204 0.146,-0.22 0.146,-0.237C0.146,-0.263 0.167,-0.292 0.209,-0.325C0.248,-0.352 0.287,-0.38 0.326,-0.407C0.368,-0.439 0.389,-0.468 0.389,-0.494C0.389,-0.524 0.373,-0.552 0.343,-0.579C0.312,-0.605 0.28,-0.619 0.247,-0.619C0.229,-0.619 0.205,-0.609 0.174,-0.589C0.144,-0.569 0.122,-0.559 0.109,-0.559C0.09,-0.559 0.074,-0.566 0.061,-0.58C0.048,-0.594 0.041,-0.61 0.041,-0.627C0.041,-0.66 0.069,-0.689 0.126,-0.716C0.175,-0.739 0.215,-0.751 0.247,-0.751C0.317,-0.751 0.381,-0.725 0.438,-0.673C0.495,-0.621 0.524,-0.561 0.524,-0.494C0.524,-0.427 0.491,-0.368 0.424,-0.316ZM0.189,0.035C0.171,0.035 0.154,0.029 0.139,0.018C0.122,0.005 0.114,-0.012 0.114,-0.031C0.114,-0.053 0.12,-0.073 0.133,-0.092C0.149,-0.115 0.17,-0.127 0.196,-0.127C0.218,-0.127 0.236,-0.119 0.248,-0.102C0.258,-0.088 0.263,-0.072 0.263,-0.054C0.263,-0.034 0.257,-0.015 0.247,0.002C0.233,0.024 0.214,0.035 0.189,0.035Z" style="fill-rule:nonzero;"/>
        </g>
    </g>
    <g transform="matrix(1,0,0,1,-289.418,-99.8789)">
        <g transform="matrix(50,0,0,50,659.183,190.275)">
            <path d="M0.467,-0.608C0.446,-0.608 0.42,-0.611 0.389,-0.615L0.31,-0.625C0.303,-0.53 0.299,-0.44 0.299,-0.354C0.299,-0.331 0.299,-0.303 0.301,-0.269C0.302,-0.236 0.303,-0.207 0.303,-0.185C0.303,-0.154 0.302,-0.126 0.299,-0.101L0.453,-0.103C0.467,-0.103 0.478,-0.098 0.488,-0.089C0.497,-0.079 0.501,-0.067 0.501,-0.053C0.501,-0.039 0.497,-0.027 0.488,-0.017C0.478,-0.008 0.467,-0.003 0.453,-0.003C0.435,-0.003 0.408,-0.003 0.371,-0.002C0.335,-0.001 0.307,0 0.289,0C0.268,0 0.235,0.003 0.193,0.009C0.15,0.015 0.118,0.018 0.096,0.018C0.082,0.018 0.071,0.013 0.061,0.003C0.052,-0.006 0.047,-0.018 0.047,-0.032C0.047,-0.046 0.052,-0.058 0.061,-0.068C0.071,-0.078 0.082,-0.083 0.096,-0.083C0.117,-0.083 0.152,-0.086 0.201,-0.093C0.204,-0.119 0.206,-0.149 0.206,-0.183C0.206,-0.206 0.205,-0.233 0.202,-0.265C0.2,-0.298 0.199,-0.325 0.199,-0.347C0.199,-0.422 0.204,-0.516 0.213,-0.629L0.149,-0.627L0.086,-0.625C0.072,-0.625 0.06,-0.63 0.051,-0.64C0.041,-0.649 0.037,-0.661 0.037,-0.676C0.037,-0.706 0.052,-0.723 0.083,-0.726C0.109,-0.728 0.158,-0.729 0.23,-0.729C0.295,-0.729 0.376,-0.722 0.474,-0.708C0.503,-0.704 0.518,-0.687 0.518,-0.656C0.518,-0.641 0.512,-0.629 0.501,-0.62C0.491,-0.612 0.48,-0.608 0.467,-0.608Z" style="fill-rule:nonzero;"/>
        </g>
        <g transform="matrix(50,0,0,50,686.502,190.275)">
            <path d="M0.752,-0.108C0.752,-0.093 0.75,-0.067 0.745,-0.03C0.739,0.003 0.722,0.019 0.692,0.019C0.674,0.019 0.653,0.007 0.628,-0.016C0.496,-0.141 0.344,-0.322 0.172,-0.559L0.17,-0.448L0.168,-0.336C0.168,-0.309 0.169,-0.269 0.17,-0.215C0.171,-0.161 0.172,-0.12 0.172,-0.093C0.172,-0.005 0.155,0.039 0.121,0.039C0.103,0.039 0.089,0.033 0.079,0.021C0.069,0.011 0.064,-0.001 0.064,-0.015C0.064,-0.028 0.066,-0.049 0.068,-0.077C0.07,-0.104 0.071,-0.125 0.071,-0.139C0.071,-0.159 0.071,-0.189 0.073,-0.229C0.074,-0.269 0.075,-0.3 0.075,-0.32C0.075,-0.341 0.074,-0.374 0.073,-0.417C0.072,-0.461 0.072,-0.493 0.072,-0.515C0.072,-0.535 0.07,-0.566 0.066,-0.606C0.062,-0.647 0.06,-0.677 0.06,-0.698C0.06,-0.713 0.066,-0.726 0.079,-0.739C0.092,-0.751 0.107,-0.757 0.123,-0.757C0.14,-0.757 0.162,-0.738 0.187,-0.701C0.268,-0.579 0.341,-0.478 0.406,-0.398C0.483,-0.303 0.568,-0.211 0.66,-0.125C0.661,-0.139 0.661,-0.159 0.66,-0.187L0.658,-0.248C0.658,-0.391 0.653,-0.505 0.642,-0.589C0.64,-0.598 0.636,-0.615 0.628,-0.641C0.622,-0.663 0.619,-0.68 0.619,-0.692C0.619,-0.73 0.636,-0.749 0.67,-0.749C0.727,-0.749 0.755,-0.643 0.755,-0.432C0.755,-0.396 0.755,-0.342 0.754,-0.27C0.753,-0.198 0.752,-0.145 0.752,-0.108Z" style="fill-rule:nonzero;"/>
        </g>
        <g transform="matrix(50,0,0,50,674.478,240.275)">
            <path d="M0.61,0.015C0.58,0.015 0.554,-0.024 0.532,-0.101C0.524,-0.13 0.513,-0.181 0.5,-0.254C0.467,-0.25 0.424,-0.242 0.37,-0.23L0.24,-0.203C0.224,-0.16 0.196,-0.098 0.157,-0.016C0.146,0.002 0.132,0.011 0.114,0.011C0.101,0.011 0.09,0.007 0.079,-0.003C0.069,-0.012 0.064,-0.024 0.064,-0.038C0.064,-0.054 0.089,-0.113 0.138,-0.216C0.132,-0.225 0.129,-0.235 0.129,-0.246C0.129,-0.272 0.145,-0.289 0.177,-0.296C0.214,-0.366 0.261,-0.446 0.318,-0.537C0.395,-0.66 0.443,-0.722 0.462,-0.722C0.488,-0.722 0.505,-0.704 0.515,-0.668L0.545,-0.504L0.618,-0.165L0.646,-0.087C0.655,-0.061 0.66,-0.043 0.66,-0.035C0.66,-0.021 0.655,-0.009 0.645,0C0.635,0.01 0.623,0.015 0.61,0.015ZM0.438,-0.543L0.298,-0.318C0.338,-0.328 0.397,-0.341 0.478,-0.355L0.438,-0.543Z" style="fill-rule:nonzero;"/>
        </g>
    </g>
</svg>
